<mxfile host="app.diagrams.net" agent="Mozilla/5.0 (Windows NT 10.0; Win64; x64) AppleWebKit/537.36 (KHTML, like Gecko) Chrome/135.0.0.0 Safari/537.36 Edg/135.0.0.0" version="26.2.10">
  <diagram name="Trang-1" id="Jy4XBKtAL81qNvdBtfwC">
    <mxGraphModel grid="1" page="1" gridSize="10" guides="1" tooltips="1" connect="1" arrows="1" fold="1" pageScale="1" pageWidth="1169" pageHeight="827" math="0" shadow="0">
      <root>
        <mxCell id="0" />
        <mxCell id="1" parent="0" />
        <mxCell id="jXQQNROP11Ci4rH4_1kC-3" value="Danh mục sản phẩm" style="swimlane;whiteSpace=wrap;html=1;labelBackgroundColor=none;rounded=0;" vertex="1" parent="1">
          <mxGeometry x="430" width="530" height="530" as="geometry" />
        </mxCell>
        <mxCell id="jXQQNROP11Ci4rH4_1kC-12" style="orthogonalLoop=1;jettySize=auto;html=1;entryX=0;entryY=0.5;entryDx=0;entryDy=0;rounded=0;dashed=1;" edge="1" parent="jXQQNROP11Ci4rH4_1kC-3" source="jXQQNROP11Ci4rH4_1kC-6" target="jXQQNROP11Ci4rH4_1kC-8">
          <mxGeometry relative="1" as="geometry" />
        </mxCell>
        <mxCell id="jXQQNROP11Ci4rH4_1kC-6" value="Quản lí sản phẩm" style="ellipse;whiteSpace=wrap;html=1;" vertex="1" parent="jXQQNROP11Ci4rH4_1kC-3">
          <mxGeometry x="10" y="270" width="160" height="70" as="geometry" />
        </mxCell>
        <mxCell id="jXQQNROP11Ci4rH4_1kC-8" value="Thêm sản phẩm" style="ellipse;whiteSpace=wrap;html=1;" vertex="1" parent="jXQQNROP11Ci4rH4_1kC-3">
          <mxGeometry x="250" y="148" width="160" height="70" as="geometry" />
        </mxCell>
        <mxCell id="jXQQNROP11Ci4rH4_1kC-9" value="Xóa sản phẩm" style="ellipse;whiteSpace=wrap;html=1;" vertex="1" parent="jXQQNROP11Ci4rH4_1kC-3">
          <mxGeometry x="250" y="230" width="160" height="70" as="geometry" />
        </mxCell>
        <mxCell id="jXQQNROP11Ci4rH4_1kC-11" value="Gán sản phẩm vào kho" style="ellipse;whiteSpace=wrap;html=1;" vertex="1" parent="jXQQNROP11Ci4rH4_1kC-3">
          <mxGeometry x="250" y="450" width="160" height="70" as="geometry" />
        </mxCell>
        <mxCell id="jXQQNROP11Ci4rH4_1kC-10" value="Sửa sản phẩm" style="ellipse;whiteSpace=wrap;html=1;" vertex="1" parent="jXQQNROP11Ci4rH4_1kC-3">
          <mxGeometry x="250" y="344" width="160" height="70" as="geometry" />
        </mxCell>
        <mxCell id="jXQQNROP11Ci4rH4_1kC-21" style="orthogonalLoop=1;jettySize=auto;html=1;entryX=0;entryY=0.5;entryDx=0;entryDy=0;rounded=0;dashed=1;exitX=1.003;exitY=0.383;exitDx=0;exitDy=0;exitPerimeter=0;" edge="1" parent="jXQQNROP11Ci4rH4_1kC-3" source="jXQQNROP11Ci4rH4_1kC-6" target="jXQQNROP11Ci4rH4_1kC-9">
          <mxGeometry relative="1" as="geometry">
            <mxPoint x="159" y="244" as="sourcePoint" />
            <mxPoint x="260" y="165" as="targetPoint" />
          </mxGeometry>
        </mxCell>
        <mxCell id="jXQQNROP11Ci4rH4_1kC-22" style="orthogonalLoop=1;jettySize=auto;html=1;entryX=0;entryY=0.5;entryDx=0;entryDy=0;rounded=0;dashed=1;" edge="1" parent="jXQQNROP11Ci4rH4_1kC-3" source="jXQQNROP11Ci4rH4_1kC-6" target="jXQQNROP11Ci4rH4_1kC-10">
          <mxGeometry relative="1" as="geometry">
            <mxPoint x="200" y="267" as="sourcePoint" />
            <mxPoint x="260" y="255" as="targetPoint" />
          </mxGeometry>
        </mxCell>
        <mxCell id="jXQQNROP11Ci4rH4_1kC-23" style="orthogonalLoop=1;jettySize=auto;html=1;entryX=0;entryY=0.5;entryDx=0;entryDy=0;rounded=0;dashed=1;exitX=0.673;exitY=0.954;exitDx=0;exitDy=0;exitPerimeter=0;" edge="1" parent="jXQQNROP11Ci4rH4_1kC-3" source="jXQQNROP11Ci4rH4_1kC-6" target="jXQQNROP11Ci4rH4_1kC-11">
          <mxGeometry relative="1" as="geometry">
            <mxPoint x="173" y="301" as="sourcePoint" />
            <mxPoint x="260" y="345" as="targetPoint" />
          </mxGeometry>
        </mxCell>
        <mxCell id="jXQQNROP11Ci4rH4_1kC-28" value="Lọc sản phẩm theo tên và giá" style="ellipse;whiteSpace=wrap;html=1;" vertex="1" parent="jXQQNROP11Ci4rH4_1kC-3">
          <mxGeometry x="10" y="60" width="160" height="70" as="geometry" />
        </mxCell>
        <mxCell id="jXQQNROP11Ci4rH4_1kC-29" value="Xem chi tiết sản phẩm" style="ellipse;whiteSpace=wrap;html=1;" vertex="1" parent="jXQQNROP11Ci4rH4_1kC-3">
          <mxGeometry x="10" y="160" width="160" height="70" as="geometry" />
        </mxCell>
        <mxCell id="jXQQNROP11Ci4rH4_1kC-59" value="&amp;lt;&amp;lt;include&amp;gt;&amp;gt;" style="text;html=1;align=center;verticalAlign=middle;resizable=0;points=[];autosize=1;strokeColor=none;fillColor=none;" vertex="1" parent="jXQQNROP11Ci4rH4_1kC-3">
          <mxGeometry x="170" y="290" width="90" height="30" as="geometry" />
        </mxCell>
        <mxCell id="jXQQNROP11Ci4rH4_1kC-60" value="&amp;lt;&amp;lt;include&amp;gt;&amp;gt;" style="text;html=1;align=center;verticalAlign=middle;resizable=0;points=[];autosize=1;strokeColor=none;fillColor=none;" vertex="1" parent="jXQQNROP11Ci4rH4_1kC-3">
          <mxGeometry x="155" y="360" width="90" height="30" as="geometry" />
        </mxCell>
        <mxCell id="jXQQNROP11Ci4rH4_1kC-61" value="&amp;lt;&amp;lt;include&amp;gt;&amp;gt;" style="text;html=1;align=center;verticalAlign=middle;resizable=0;points=[];autosize=1;strokeColor=none;fillColor=none;" vertex="1" parent="jXQQNROP11Ci4rH4_1kC-3">
          <mxGeometry x="110" y="390" width="90" height="30" as="geometry" />
        </mxCell>
        <mxCell id="jXQQNROP11Ci4rH4_1kC-4" value="Người mua" style="shape=umlActor;verticalLabelPosition=bottom;verticalAlign=top;html=1;outlineConnect=0;" vertex="1" parent="1">
          <mxGeometry x="330" y="150" width="30" height="60" as="geometry" />
        </mxCell>
        <mxCell id="jXQQNROP11Ci4rH4_1kC-7" style="orthogonalLoop=1;jettySize=auto;html=1;endArrow=none;startFill=0;" edge="1" parent="1" source="jXQQNROP11Ci4rH4_1kC-5" target="jXQQNROP11Ci4rH4_1kC-6">
          <mxGeometry relative="1" as="geometry" />
        </mxCell>
        <mxCell id="jXQQNROP11Ci4rH4_1kC-5" value="Quản trị viên" style="shape=umlActor;verticalLabelPosition=bottom;verticalAlign=top;html=1;outlineConnect=0;" vertex="1" parent="1">
          <mxGeometry x="330" y="270" width="30" height="60" as="geometry" />
        </mxCell>
        <mxCell id="jXQQNROP11Ci4rH4_1kC-31" style="orthogonalLoop=1;jettySize=auto;html=1;endArrow=none;startFill=0;entryX=0;entryY=0.5;entryDx=0;entryDy=0;" edge="1" parent="1" target="jXQQNROP11Ci4rH4_1kC-29">
          <mxGeometry relative="1" as="geometry">
            <mxPoint x="370" y="200" as="sourcePoint" />
            <mxPoint x="450" y="313" as="targetPoint" />
          </mxGeometry>
        </mxCell>
        <mxCell id="jXQQNROP11Ci4rH4_1kC-32" style="orthogonalLoop=1;jettySize=auto;html=1;endArrow=none;startFill=0;entryX=0;entryY=0.5;entryDx=0;entryDy=0;" edge="1" parent="1" target="jXQQNROP11Ci4rH4_1kC-28">
          <mxGeometry relative="1" as="geometry">
            <mxPoint x="370" y="200" as="sourcePoint" />
            <mxPoint x="450" y="205" as="targetPoint" />
          </mxGeometry>
        </mxCell>
        <mxCell id="jXQQNROP11Ci4rH4_1kC-33" value="Giỏ hàng" style="swimlane;whiteSpace=wrap;html=1;" vertex="1" parent="1">
          <mxGeometry x="1200" width="480" height="720" as="geometry" />
        </mxCell>
        <mxCell id="jXQQNROP11Ci4rH4_1kC-36" value="Xem tất cả giỏ hàng của người mua" style="ellipse;whiteSpace=wrap;html=1;" vertex="1" parent="jXQQNROP11Ci4rH4_1kC-33">
          <mxGeometry x="80" y="510" width="150" height="80" as="geometry" />
        </mxCell>
        <mxCell id="jXQQNROP11Ci4rH4_1kC-39" value="Kích hoạt / vô hiệu hóa giỏ hàng của người mua" style="ellipse;whiteSpace=wrap;html=1;" vertex="1" parent="jXQQNROP11Ci4rH4_1kC-33">
          <mxGeometry x="80" y="610" width="150" height="80" as="geometry" />
        </mxCell>
        <mxCell id="jXQQNROP11Ci4rH4_1kC-40" value="Thêm sản phẩm vào giỏ hàng" style="ellipse;whiteSpace=wrap;html=1;" vertex="1" parent="jXQQNROP11Ci4rH4_1kC-33">
          <mxGeometry x="60" y="50" width="150" height="80" as="geometry" />
        </mxCell>
        <mxCell id="jXQQNROP11Ci4rH4_1kC-41" value="Cập nhật số lượng sản phẩm trong giỏ hàng" style="ellipse;whiteSpace=wrap;html=1;" vertex="1" parent="jXQQNROP11Ci4rH4_1kC-33">
          <mxGeometry x="60" y="160" width="150" height="80" as="geometry" />
        </mxCell>
        <mxCell id="jXQQNROP11Ci4rH4_1kC-42" value="Xóa sản phẩm khỏi giỏ hàng" style="ellipse;whiteSpace=wrap;html=1;" vertex="1" parent="jXQQNROP11Ci4rH4_1kC-33">
          <mxGeometry x="60" y="270" width="150" height="80" as="geometry" />
        </mxCell>
        <mxCell id="jXQQNROP11Ci4rH4_1kC-44" value="Thanh toán giỏ hàng" style="ellipse;whiteSpace=wrap;html=1;" vertex="1" parent="jXQQNROP11Ci4rH4_1kC-33">
          <mxGeometry x="60" y="390" width="150" height="80" as="geometry" />
        </mxCell>
        <mxCell id="jXQQNROP11Ci4rH4_1kC-34" value="Người mua" style="shape=umlActor;verticalLabelPosition=bottom;verticalAlign=top;html=1;outlineConnect=0;" vertex="1" parent="1">
          <mxGeometry x="1109" y="220" width="30" height="60" as="geometry" />
        </mxCell>
        <mxCell id="jXQQNROP11Ci4rH4_1kC-35" value="Quản trị viên" style="shape=umlActor;verticalLabelPosition=bottom;verticalAlign=top;html=1;outlineConnect=0;" vertex="1" parent="1">
          <mxGeometry x="1109" y="490" width="30" height="60" as="geometry" />
        </mxCell>
        <mxCell id="jXQQNROP11Ci4rH4_1kC-37" value="" style="endArrow=none;html=1;entryX=0;entryY=0.5;entryDx=0;entryDy=0;" edge="1" parent="1" target="jXQQNROP11Ci4rH4_1kC-36">
          <mxGeometry width="50" height="50" relative="1" as="geometry">
            <mxPoint x="1160" y="530" as="sourcePoint" />
            <mxPoint x="1190" y="430" as="targetPoint" />
          </mxGeometry>
        </mxCell>
        <mxCell id="jXQQNROP11Ci4rH4_1kC-38" value="" style="endArrow=none;html=1;" edge="1" parent="1">
          <mxGeometry width="50" height="50" relative="1" as="geometry">
            <mxPoint x="1160" y="530" as="sourcePoint" />
            <mxPoint x="1280" y="640" as="targetPoint" />
          </mxGeometry>
        </mxCell>
        <mxCell id="jXQQNROP11Ci4rH4_1kC-45" value="" style="endArrow=none;html=1;entryX=0;entryY=0.5;entryDx=0;entryDy=0;" edge="1" parent="1" target="jXQQNROP11Ci4rH4_1kC-44">
          <mxGeometry width="50" height="50" relative="1" as="geometry">
            <mxPoint x="1160" y="280" as="sourcePoint" />
            <mxPoint x="1250" y="440" as="targetPoint" />
          </mxGeometry>
        </mxCell>
        <mxCell id="jXQQNROP11Ci4rH4_1kC-46" value="" style="endArrow=none;html=1;entryX=0;entryY=0.5;entryDx=0;entryDy=0;" edge="1" parent="1" target="jXQQNROP11Ci4rH4_1kC-42">
          <mxGeometry width="50" height="50" relative="1" as="geometry">
            <mxPoint x="1160" y="280" as="sourcePoint" />
            <mxPoint x="1270" y="440" as="targetPoint" />
          </mxGeometry>
        </mxCell>
        <mxCell id="jXQQNROP11Ci4rH4_1kC-47" value="" style="endArrow=none;html=1;entryX=0;entryY=0.5;entryDx=0;entryDy=0;" edge="1" parent="1" target="jXQQNROP11Ci4rH4_1kC-41">
          <mxGeometry width="50" height="50" relative="1" as="geometry">
            <mxPoint x="1160" y="280" as="sourcePoint" />
            <mxPoint x="1270" y="320" as="targetPoint" />
          </mxGeometry>
        </mxCell>
        <mxCell id="jXQQNROP11Ci4rH4_1kC-48" value="" style="endArrow=none;html=1;entryX=0;entryY=0.5;entryDx=0;entryDy=0;" edge="1" parent="1" target="jXQQNROP11Ci4rH4_1kC-40">
          <mxGeometry width="50" height="50" relative="1" as="geometry">
            <mxPoint x="1160" y="280" as="sourcePoint" />
            <mxPoint x="1250" y="90" as="targetPoint" />
          </mxGeometry>
        </mxCell>
        <mxCell id="jXQQNROP11Ci4rH4_1kC-49" value="Quy trình thanh toán" style="swimlane;whiteSpace=wrap;html=1;" vertex="1" parent="1">
          <mxGeometry x="430" y="610" width="530" height="500" as="geometry" />
        </mxCell>
        <mxCell id="jXQQNROP11Ci4rH4_1kC-54" value="Xác thực thông tin sản phẩm" style="ellipse;whiteSpace=wrap;html=1;" vertex="1" parent="jXQQNROP11Ci4rH4_1kC-49">
          <mxGeometry x="40" y="120" width="150" height="70" as="geometry" />
        </mxCell>
        <mxCell id="jXQQNROP11Ci4rH4_1kC-66" value="" style="edgeStyle=orthogonalEdgeStyle;orthogonalLoop=1;jettySize=auto;html=1;" edge="1" parent="jXQQNROP11Ci4rH4_1kC-49" source="jXQQNROP11Ci4rH4_1kC-55" target="jXQQNROP11Ci4rH4_1kC-56">
          <mxGeometry relative="1" as="geometry" />
        </mxCell>
        <mxCell id="jXQQNROP11Ci4rH4_1kC-55" value="Xử lý thanh toán&lt;span style=&quot;color: rgba(0, 0, 0, 0); font-family: monospace; font-size: 0px; text-align: start; text-wrap-mode: nowrap;&quot;&gt;%3CmxGraphModel%3E%3Croot%3E%3CmxCell%20id%3D%220%22%2F%3E%3CmxCell%20id%3D%221%22%20parent%3D%220%22%2F%3E%3CmxCell%20id%3D%222%22%20value%3D%22X%C3%A1c%20th%E1%BB%B1c%20th%C3%B4ng%20tin%20s%E1%BA%A3n%20ph%E1%BA%A9m%22%20style%3D%22ellipse%3BwhiteSpace%3Dwrap%3Bhtml%3D1%3B%22%20vertex%3D%221%22%20parent%3D%221%22%3E%3CmxGeometry%20x%3D%22660%22%20y%3D%22740%22%20width%3D%22150%22%20height%3D%2270%22%20as%3D%22geometry%22%2F%3E%3C%2FmxCell%3E%3C%2Froot%3E%3C%2FmxGraphModel%3E&lt;/span&gt;" style="ellipse;whiteSpace=wrap;html=1;" vertex="1" parent="jXQQNROP11Ci4rH4_1kC-49">
          <mxGeometry x="230" y="150" width="150" height="70" as="geometry" />
        </mxCell>
        <mxCell id="jXQQNROP11Ci4rH4_1kC-56" value="Gửi mail người dùng" style="ellipse;whiteSpace=wrap;html=1;" vertex="1" parent="jXQQNROP11Ci4rH4_1kC-49">
          <mxGeometry x="230" y="260" width="150" height="70" as="geometry" />
        </mxCell>
        <mxCell id="jXQQNROP11Ci4rH4_1kC-57" value="" style="endArrow=classic;html=1;entryX=0.03;entryY=0.39;entryDx=0;entryDy=0;entryPerimeter=0;exitX=0.989;exitY=0.627;exitDx=0;exitDy=0;exitPerimeter=0;" edge="1" parent="jXQQNROP11Ci4rH4_1kC-49" source="jXQQNROP11Ci4rH4_1kC-54" target="jXQQNROP11Ci4rH4_1kC-55">
          <mxGeometry width="50" height="50" relative="1" as="geometry">
            <mxPoint x="140" y="190" as="sourcePoint" />
            <mxPoint x="260.0000000000002" y="125" as="targetPoint" />
          </mxGeometry>
        </mxCell>
        <mxCell id="jXQQNROP11Ci4rH4_1kC-64" value="&amp;lt;&amp;lt;include&amp;gt;&amp;gt;" style="text;html=1;align=center;verticalAlign=middle;resizable=0;points=[];autosize=1;strokeColor=none;fillColor=none;" vertex="1" parent="jXQQNROP11Ci4rH4_1kC-49">
          <mxGeometry x="185" y="130" width="90" height="30" as="geometry" />
        </mxCell>
        <mxCell id="jXQQNROP11Ci4rH4_1kC-67" value="&amp;lt;&amp;lt;include&amp;gt;&amp;gt;" style="text;html=1;align=center;verticalAlign=middle;resizable=0;points=[];autosize=1;strokeColor=none;fillColor=none;" vertex="1" parent="jXQQNROP11Ci4rH4_1kC-49">
          <mxGeometry x="220" y="230" width="90" height="30" as="geometry" />
        </mxCell>
        <mxCell id="jXQQNROP11Ci4rH4_1kC-50" value="Hệ thống" style="shape=umlActor;verticalLabelPosition=bottom;verticalAlign=top;html=1;outlineConnect=0;" vertex="1" parent="1">
          <mxGeometry x="340" y="810" width="30" height="60" as="geometry" />
        </mxCell>
        <mxCell id="jXQQNROP11Ci4rH4_1kC-53" value="" style="endArrow=none;html=1;entryX=0;entryY=0.5;entryDx=0;entryDy=0;" edge="1" parent="1">
          <mxGeometry width="50" height="50" relative="1" as="geometry">
            <mxPoint x="400" y="840" as="sourcePoint" />
            <mxPoint x="470.0000000000016" y="765" as="targetPoint" />
          </mxGeometry>
        </mxCell>
        <mxCell id="jXQQNROP11Ci4rH4_1kC-58" value="&amp;lt;&amp;lt;include&amp;gt;&amp;gt;" style="text;html=1;align=center;verticalAlign=middle;resizable=0;points=[];autosize=1;strokeColor=none;fillColor=none;" vertex="1" parent="1">
          <mxGeometry x="565" y="208" width="90" height="30" as="geometry" />
        </mxCell>
        <mxCell id="jXQQNROP11Ci4rH4_1kC-62" value="&amp;lt;&amp;lt;include&amp;gt;&amp;gt;" style="text;html=1;align=center;verticalAlign=middle;resizable=0;points=[];autosize=1;strokeColor=none;fillColor=none;" vertex="1" parent="1">
          <mxGeometry x="605" y="248" width="90" height="30" as="geometry" />
        </mxCell>
        <mxCell id="jXQQNROP11Ci4rH4_1kC-63" value="&amp;lt;&amp;lt;include&amp;gt;&amp;gt;" style="text;html=1;align=center;verticalAlign=middle;resizable=0;points=[];autosize=1;strokeColor=none;fillColor=none;" vertex="1" parent="1">
          <mxGeometry x="615" y="258" width="90" height="30" as="geometry" />
        </mxCell>
        <mxCell id="jXQQNROP11Ci4rH4_1kC-68" value="Kho hàng" style="swimlane;whiteSpace=wrap;html=1;labelBackgroundColor=none;rounded=0;" vertex="1" parent="1">
          <mxGeometry x="1160" y="950" width="545" height="407" as="geometry" />
        </mxCell>
        <mxCell id="jXQQNROP11Ci4rH4_1kC-69" style="orthogonalLoop=1;jettySize=auto;html=1;entryX=0;entryY=0.5;entryDx=0;entryDy=0;rounded=0;dashed=1;" edge="1" parent="jXQQNROP11Ci4rH4_1kC-68" source="jXQQNROP11Ci4rH4_1kC-70" target="jXQQNROP11Ci4rH4_1kC-71">
          <mxGeometry relative="1" as="geometry" />
        </mxCell>
        <mxCell id="jXQQNROP11Ci4rH4_1kC-70" value="Quản lí kho" style="ellipse;whiteSpace=wrap;html=1;" vertex="1" parent="jXQQNROP11Ci4rH4_1kC-68">
          <mxGeometry x="9" y="200" width="160" height="70" as="geometry" />
        </mxCell>
        <mxCell id="jXQQNROP11Ci4rH4_1kC-71" value="Tạo kho" style="ellipse;whiteSpace=wrap;html=1;" vertex="1" parent="jXQQNROP11Ci4rH4_1kC-68">
          <mxGeometry x="260" y="90" width="160" height="70" as="geometry" />
        </mxCell>
        <mxCell id="jXQQNROP11Ci4rH4_1kC-72" value="Lấy kho" style="ellipse;whiteSpace=wrap;html=1;" vertex="1" parent="jXQQNROP11Ci4rH4_1kC-68">
          <mxGeometry x="260" y="190" width="160" height="70" as="geometry" />
        </mxCell>
        <mxCell id="jXQQNROP11Ci4rH4_1kC-73" value="Xóa kho" style="ellipse;whiteSpace=wrap;html=1;" vertex="1" parent="jXQQNROP11Ci4rH4_1kC-68">
          <mxGeometry x="260" y="340" width="160" height="70" as="geometry" />
        </mxCell>
        <mxCell id="jXQQNROP11Ci4rH4_1kC-74" value="Cập nhật kho" style="ellipse;whiteSpace=wrap;html=1;" vertex="1" parent="jXQQNROP11Ci4rH4_1kC-68">
          <mxGeometry x="260" y="270" width="160" height="70" as="geometry" />
        </mxCell>
        <mxCell id="jXQQNROP11Ci4rH4_1kC-75" style="orthogonalLoop=1;jettySize=auto;html=1;entryX=0;entryY=0.5;entryDx=0;entryDy=0;rounded=0;dashed=1;exitX=1.003;exitY=0.383;exitDx=0;exitDy=0;exitPerimeter=0;" edge="1" parent="jXQQNROP11Ci4rH4_1kC-68" source="jXQQNROP11Ci4rH4_1kC-70" target="jXQQNROP11Ci4rH4_1kC-72">
          <mxGeometry relative="1" as="geometry">
            <mxPoint x="159" y="244" as="sourcePoint" />
            <mxPoint x="260" y="165" as="targetPoint" />
          </mxGeometry>
        </mxCell>
        <mxCell id="jXQQNROP11Ci4rH4_1kC-76" style="orthogonalLoop=1;jettySize=auto;html=1;entryX=0;entryY=0.5;entryDx=0;entryDy=0;rounded=0;dashed=1;" edge="1" parent="jXQQNROP11Ci4rH4_1kC-68" source="jXQQNROP11Ci4rH4_1kC-70" target="jXQQNROP11Ci4rH4_1kC-74">
          <mxGeometry relative="1" as="geometry">
            <mxPoint x="200" y="267" as="sourcePoint" />
            <mxPoint x="260" y="255" as="targetPoint" />
          </mxGeometry>
        </mxCell>
        <mxCell id="jXQQNROP11Ci4rH4_1kC-77" style="orthogonalLoop=1;jettySize=auto;html=1;entryX=0;entryY=0.5;entryDx=0;entryDy=0;rounded=0;dashed=1;exitX=0.673;exitY=0.954;exitDx=0;exitDy=0;exitPerimeter=0;" edge="1" parent="jXQQNROP11Ci4rH4_1kC-68" source="jXQQNROP11Ci4rH4_1kC-70" target="jXQQNROP11Ci4rH4_1kC-73">
          <mxGeometry relative="1" as="geometry">
            <mxPoint x="173" y="301" as="sourcePoint" />
            <mxPoint x="260" y="345" as="targetPoint" />
          </mxGeometry>
        </mxCell>
        <mxCell id="jXQQNROP11Ci4rH4_1kC-80" value="&amp;lt;&amp;lt;include&amp;gt;&amp;gt;" style="text;html=1;align=center;verticalAlign=middle;resizable=0;points=[];autosize=1;strokeColor=none;fillColor=none;" vertex="1" parent="jXQQNROP11Ci4rH4_1kC-68">
          <mxGeometry x="185" y="258" width="90" height="30" as="geometry" />
        </mxCell>
        <mxCell id="jXQQNROP11Ci4rH4_1kC-81" value="&amp;lt;&amp;lt;include&amp;gt;&amp;gt;" style="text;html=1;align=center;verticalAlign=middle;resizable=0;points=[];autosize=1;strokeColor=none;fillColor=none;" vertex="1" parent="jXQQNROP11Ci4rH4_1kC-68">
          <mxGeometry x="140" y="330" width="90" height="30" as="geometry" />
        </mxCell>
        <mxCell id="jXQQNROP11Ci4rH4_1kC-82" value="&amp;lt;&amp;lt;include&amp;gt;&amp;gt;" style="text;html=1;align=center;verticalAlign=middle;resizable=0;points=[];autosize=1;strokeColor=none;fillColor=none;" vertex="1" parent="jXQQNROP11Ci4rH4_1kC-68">
          <mxGeometry x="125" y="120" width="90" height="30" as="geometry" />
        </mxCell>
        <mxCell id="jXQQNROP11Ci4rH4_1kC-83" value="&amp;lt;&amp;lt;include&amp;gt;&amp;gt;" style="text;html=1;align=center;verticalAlign=middle;resizable=0;points=[];autosize=1;strokeColor=none;fillColor=none;" vertex="1" parent="jXQQNROP11Ci4rH4_1kC-68">
          <mxGeometry x="155" y="200" width="90" height="30" as="geometry" />
        </mxCell>
        <mxCell id="jXQQNROP11Ci4rH4_1kC-85" style="orthogonalLoop=1;jettySize=auto;html=1;entryX=0;entryY=0.5;entryDx=0;entryDy=0;endArrow=none;startFill=0;" edge="1" parent="1" source="jXQQNROP11Ci4rH4_1kC-84" target="jXQQNROP11Ci4rH4_1kC-70">
          <mxGeometry relative="1" as="geometry" />
        </mxCell>
        <mxCell id="jXQQNROP11Ci4rH4_1kC-84" value="Quản trị viên" style="shape=umlActor;verticalLabelPosition=bottom;verticalAlign=top;html=1;outlineConnect=0;" vertex="1" parent="1">
          <mxGeometry x="1070" y="1160" width="30" height="60" as="geometry" />
        </mxCell>
        <mxCell id="jXQQNROP11Ci4rH4_1kC-86" value="Đánh giá sản phẩm" style="swimlane;whiteSpace=wrap;html=1;" vertex="1" parent="1">
          <mxGeometry x="620" y="1220" width="360" height="280" as="geometry" />
        </mxCell>
        <mxCell id="jXQQNROP11Ci4rH4_1kC-89" value="Đánh giá sản phẩm" style="ellipse;whiteSpace=wrap;html=1;" vertex="1" parent="jXQQNROP11Ci4rH4_1kC-86">
          <mxGeometry x="90" y="100" width="120" height="80" as="geometry" />
        </mxCell>
        <mxCell id="jXQQNROP11Ci4rH4_1kC-88" value="Người mua" style="shape=umlActor;verticalLabelPosition=bottom;verticalAlign=top;html=1;outlineConnect=0;" vertex="1" parent="1">
          <mxGeometry x="470" y="1320" width="30" height="60" as="geometry" />
        </mxCell>
        <mxCell id="jXQQNROP11Ci4rH4_1kC-90" value="" style="endArrow=none;html=1;entryX=0;entryY=0.5;entryDx=0;entryDy=0;" edge="1" parent="1" target="jXQQNROP11Ci4rH4_1kC-89">
          <mxGeometry width="50" height="50" relative="1" as="geometry">
            <mxPoint x="520" y="1360" as="sourcePoint" />
            <mxPoint x="740" y="1300" as="targetPoint" />
          </mxGeometry>
        </mxCell>
        <mxCell id="jXQQNROP11Ci4rH4_1kC-91" value="Kiểm soát truy cập" style="swimlane;whiteSpace=wrap;html=1;" vertex="1" parent="1">
          <mxGeometry x="670" y="1610" width="340" height="270" as="geometry" />
        </mxCell>
        <mxCell id="jXQQNROP11Ci4rH4_1kC-95" value="Đăng nhập" style="ellipse;whiteSpace=wrap;html=1;" vertex="1" parent="jXQQNROP11Ci4rH4_1kC-91">
          <mxGeometry x="120" y="80" width="120" height="60" as="geometry" />
        </mxCell>
        <mxCell id="jXQQNROP11Ci4rH4_1kC-98" value="Đăng xuất" style="ellipse;whiteSpace=wrap;html=1;" vertex="1" parent="jXQQNROP11Ci4rH4_1kC-91">
          <mxGeometry x="140" y="170" width="120" height="60" as="geometry" />
        </mxCell>
        <mxCell id="jXQQNROP11Ci4rH4_1kC-92" value="Người mua" style="shape=umlActor;verticalLabelPosition=bottom;verticalAlign=top;html=1;outlineConnect=0;" vertex="1" parent="1">
          <mxGeometry x="555" y="1654" width="30" height="60" as="geometry" />
        </mxCell>
        <mxCell id="jXQQNROP11Ci4rH4_1kC-94" value="Quản trị viên" style="shape=umlActor;verticalLabelPosition=bottom;verticalAlign=top;html=1;outlineConnect=0;" vertex="1" parent="1">
          <mxGeometry x="570" y="1800" width="30" height="60" as="geometry" />
        </mxCell>
        <mxCell id="jXQQNROP11Ci4rH4_1kC-100" value="" style="endArrow=none;html=1;entryX=0;entryY=0.5;entryDx=0;entryDy=0;" edge="1" parent="1" target="jXQQNROP11Ci4rH4_1kC-95">
          <mxGeometry width="50" height="50" relative="1" as="geometry">
            <mxPoint x="630" y="1830" as="sourcePoint" />
            <mxPoint x="690" y="1760" as="targetPoint" />
          </mxGeometry>
        </mxCell>
        <mxCell id="jXQQNROP11Ci4rH4_1kC-101" value="" style="endArrow=none;html=1;entryX=0;entryY=0.5;entryDx=0;entryDy=0;" edge="1" parent="1" target="jXQQNROP11Ci4rH4_1kC-98">
          <mxGeometry width="50" height="50" relative="1" as="geometry">
            <mxPoint x="630" y="1830" as="sourcePoint" />
            <mxPoint x="800" y="1730" as="targetPoint" />
          </mxGeometry>
        </mxCell>
        <mxCell id="jXQQNROP11Ci4rH4_1kC-102" value="" style="endArrow=none;html=1;entryX=0;entryY=0.5;entryDx=0;entryDy=0;" edge="1" parent="1" target="jXQQNROP11Ci4rH4_1kC-95">
          <mxGeometry width="50" height="50" relative="1" as="geometry">
            <mxPoint x="620" y="1680" as="sourcePoint" />
            <mxPoint x="820" y="1820" as="targetPoint" />
          </mxGeometry>
        </mxCell>
        <mxCell id="jXQQNROP11Ci4rH4_1kC-103" value="" style="endArrow=none;html=1;entryX=0;entryY=0.5;entryDx=0;entryDy=0;" edge="1" parent="1" target="jXQQNROP11Ci4rH4_1kC-98">
          <mxGeometry width="50" height="50" relative="1" as="geometry">
            <mxPoint x="620" y="1680" as="sourcePoint" />
            <mxPoint x="800" y="1730" as="targetPoint" />
          </mxGeometry>
        </mxCell>
      </root>
    </mxGraphModel>
  </diagram>
</mxfile>
